<mxfile host="app.diagrams.net" modified="2022-05-06T07:33:00.231Z" agent="5.0 (Macintosh; Intel Mac OS X 10_15_7) AppleWebKit/537.36 (KHTML, like Gecko) Chrome/100.0.4896.127 Safari/537.36" etag="3Mn94rtMoqm8L589EQwb" version="17.5.0" type="github">
  <diagram id="g9rI49kBuhBtWDt9Ivvu" name="第 1 页">
    <mxGraphModel dx="973" dy="632" grid="1" gridSize="10" guides="1" tooltips="1" connect="1" arrows="1" fold="1" page="1" pageScale="1" pageWidth="827" pageHeight="1169" math="0" shadow="0">
      <root>
        <mxCell id="0" />
        <mxCell id="1" parent="0" />
        <mxCell id="vqNBI9N8yzUvkYdpLMNr-10" value="" style="group" vertex="1" connectable="0" parent="1">
          <mxGeometry x="150" y="220" width="490" height="60" as="geometry" />
        </mxCell>
        <mxCell id="vqNBI9N8yzUvkYdpLMNr-1" value="&lt;font style=&quot;font-size: 34px&quot;&gt;10&lt;/font&gt;" style="rounded=0;whiteSpace=wrap;html=1;fillColor=#6a00ff;fontColor=#ffffff;strokeColor=#3700CC;" vertex="1" parent="vqNBI9N8yzUvkYdpLMNr-10">
          <mxGeometry width="70" height="60" as="geometry" />
        </mxCell>
        <mxCell id="vqNBI9N8yzUvkYdpLMNr-4" value="&lt;font style=&quot;font-size: 34px&quot;&gt;11&lt;/font&gt;" style="rounded=0;whiteSpace=wrap;html=1;fillColor=#6a00ff;fontColor=#ffffff;strokeColor=#3700CC;" vertex="1" parent="vqNBI9N8yzUvkYdpLMNr-10">
          <mxGeometry x="70" width="70" height="60" as="geometry" />
        </mxCell>
        <mxCell id="vqNBI9N8yzUvkYdpLMNr-5" value="&lt;font style=&quot;font-size: 34px&quot;&gt;12&lt;/font&gt;" style="rounded=0;whiteSpace=wrap;html=1;fillColor=#6a00ff;fontColor=#ffffff;strokeColor=#3700CC;" vertex="1" parent="vqNBI9N8yzUvkYdpLMNr-10">
          <mxGeometry x="140" width="70" height="60" as="geometry" />
        </mxCell>
        <mxCell id="vqNBI9N8yzUvkYdpLMNr-6" value="&lt;font style=&quot;font-size: 34px&quot;&gt;12&lt;/font&gt;" style="rounded=0;whiteSpace=wrap;html=1;fillColor=#ffcd28;strokeColor=#d79b00;gradientColor=#ffa500;" vertex="1" parent="vqNBI9N8yzUvkYdpLMNr-10">
          <mxGeometry x="210" width="70" height="60" as="geometry" />
        </mxCell>
        <mxCell id="vqNBI9N8yzUvkYdpLMNr-7" value="&lt;font style=&quot;font-size: 34px&quot;&gt;13&lt;/font&gt;" style="rounded=0;whiteSpace=wrap;html=1;fillColor=#6a00ff;fontColor=#ffffff;strokeColor=#3700CC;" vertex="1" parent="vqNBI9N8yzUvkYdpLMNr-10">
          <mxGeometry x="280" width="70" height="60" as="geometry" />
        </mxCell>
        <mxCell id="vqNBI9N8yzUvkYdpLMNr-8" value="&lt;font style=&quot;font-size: 34px&quot;&gt;15&lt;/font&gt;" style="rounded=0;whiteSpace=wrap;html=1;fillColor=#6a00ff;fontColor=#ffffff;strokeColor=#3700CC;" vertex="1" parent="vqNBI9N8yzUvkYdpLMNr-10">
          <mxGeometry x="350" width="70" height="60" as="geometry" />
        </mxCell>
        <mxCell id="vqNBI9N8yzUvkYdpLMNr-9" value="&lt;font style=&quot;font-size: 34px&quot;&gt;16&lt;/font&gt;" style="rounded=0;whiteSpace=wrap;html=1;fillColor=#6a00ff;fontColor=#ffffff;strokeColor=#3700CC;" vertex="1" parent="vqNBI9N8yzUvkYdpLMNr-10">
          <mxGeometry x="420" width="70" height="60" as="geometry" />
        </mxCell>
        <mxCell id="vqNBI9N8yzUvkYdpLMNr-11" value="" style="endArrow=classic;html=1;rounded=0;fontSize=34;strokeWidth=3;" edge="1" parent="1">
          <mxGeometry width="50" height="50" relative="1" as="geometry">
            <mxPoint x="400" y="370" as="sourcePoint" />
            <mxPoint x="400" y="300" as="targetPoint" />
          </mxGeometry>
        </mxCell>
        <mxCell id="vqNBI9N8yzUvkYdpLMNr-12" value="mid = target ?" style="text;html=1;align=center;verticalAlign=middle;resizable=0;points=[];autosize=1;strokeColor=none;fillColor=none;fontSize=34;" vertex="1" parent="1">
          <mxGeometry x="289" y="380" width="220" height="50" as="geometry" />
        </mxCell>
        <mxCell id="vqNBI9N8yzUvkYdpLMNr-13" value="" style="shape=curlyBracket;whiteSpace=wrap;html=1;rounded=1;fontSize=34;rotation=90;strokeWidth=2;" vertex="1" parent="1">
          <mxGeometry x="246.25" y="96.25" width="20" height="207.5" as="geometry" />
        </mxCell>
        <mxCell id="vqNBI9N8yzUvkYdpLMNr-15" value="" style="shape=curlyBracket;whiteSpace=wrap;html=1;rounded=1;fontSize=34;rotation=90;strokeWidth=2;" vertex="1" parent="1">
          <mxGeometry x="525.5" y="97.5" width="20" height="205" as="geometry" />
        </mxCell>
        <mxCell id="vqNBI9N8yzUvkYdpLMNr-18" value="Right interval" style="text;strokeColor=none;fillColor=none;html=1;fontSize=24;fontStyle=1;verticalAlign=middle;align=center;" vertex="1" parent="1">
          <mxGeometry x="488" y="145" width="100" height="40" as="geometry" />
        </mxCell>
        <mxCell id="vqNBI9N8yzUvkYdpLMNr-21" value="Left interval" style="text;strokeColor=none;fillColor=none;html=1;fontSize=24;fontStyle=1;verticalAlign=middle;align=center;" vertex="1" parent="1">
          <mxGeometry x="205" y="145" width="100" height="40" as="geometry" />
        </mxCell>
        <mxCell id="vqNBI9N8yzUvkYdpLMNr-22" value="low,mid (high-1)" style="text;html=1;align=center;verticalAlign=middle;resizable=0;points=[];autosize=1;strokeColor=none;fillColor=none;fontSize=28;" vertex="1" parent="1">
          <mxGeometry x="150" y="302.5" width="210" height="40" as="geometry" />
        </mxCell>
        <mxCell id="vqNBI9N8yzUvkYdpLMNr-24" value="mid (low + 1),high" style="text;html=1;align=center;verticalAlign=middle;resizable=0;points=[];autosize=1;strokeColor=none;fillColor=none;fontSize=28;" vertex="1" parent="1">
          <mxGeometry x="439" y="303.75" width="240" height="40" as="geometry" />
        </mxCell>
      </root>
    </mxGraphModel>
  </diagram>
</mxfile>
